<svg width="22" height="20" viewBox="0 0 22 20" fill="none" xmlns="http://www.w3.org/2000/svg">
<path d="M20.6154 11.9231H19.6539C19.6539 8.20192 16.6442 5.19231 12.9231 5.19231H11.9616V3.97115C12.254 3.80233 12.4968 3.55948 12.6656 3.26705C12.8344 2.97461 12.9232 2.64288 12.9231 2.30523C12.923 1.96757 12.834 1.63589 12.6651 1.34354C12.4961 1.05119 12.2532 0.808472 11.9607 0.639795C11.6682 0.471118 11.3364 0.382429 10.9988 0.382645C10.6611 0.382861 10.3295 0.471976 10.0372 0.641028C9.74491 0.81008 9.50229 1.05311 9.33372 1.34568C9.16516 1.63825 9.0766 1.97004 9.07694 2.30769C9.07694 3.01923 9.46156 3.64423 10.0385 3.97115V5.19231H9.07694C5.35579 5.19231 2.34617 8.20192 2.34617 11.9231H1.38463C0.855788 11.9231 0.423096 12.3558 0.423096 12.8846V15.7692C0.423096 16.2981 0.855788 16.7308 1.38463 16.7308H2.34617V17.6923C2.34617 18.2023 2.54878 18.6915 2.90943 19.0521C3.27008 19.4128 3.75922 19.6154 4.26925 19.6154H17.7308C18.7981 19.6154 19.6539 18.7596 19.6539 17.6923V16.7308H20.6154C21.1442 16.7308 21.5769 16.2981 21.5769 15.7692V12.8846C21.5769 12.3558 21.1442 11.9231 20.6154 11.9231ZM8.87502 14.3269C8.50002 13.4808 7.66348 12.8846 6.6731 12.8846C5.68271 12.8846 4.84617 13.4808 4.47117 14.3269C4.34617 14.0288 4.26925 13.7115 4.26925 13.3654C4.26925 12.7278 4.52251 12.1164 4.97332 11.6656C5.42413 11.2148 6.03556 10.9615 6.6731 10.9615C7.31063 10.9615 7.92206 11.2148 8.37287 11.6656C8.82368 12.1164 9.07694 12.7278 9.07694 13.3654C9.07694 13.7115 9.00002 14.0288 8.87502 14.3269ZM17.5289 14.3269C17.1539 13.4808 16.2885 12.8846 15.3269 12.8846C14.3654 12.8846 13.5 13.4808 13.125 14.3269C13 14.0288 12.9231 13.7115 12.9231 13.3654C12.9231 12.7278 13.1764 12.1164 13.6272 11.6656C14.078 11.2148 14.6894 10.9615 15.3269 10.9615C15.9645 10.9615 16.5759 11.2148 17.0267 11.6656C17.4775 12.1164 17.7308 12.7278 17.7308 13.3654C17.7308 13.7115 17.6539 14.0288 17.5289 14.3269Z" fill="white"/>
</svg>
